<svg version="1.1"
  xmlns="http://www.w3.org/2000/svg" xmlns:xlink="http://www.w3.org/1999/xlink" xmlns:a="http://ns.adobe.com/AdobeSVGViewerExtensions/3.0/"
  x="0px" y="0px" width="240px" height="240px" viewBox="0 0 240 240" enable-background="new 0 0 240 240" xml:space="preserve">
  <defs>
  </defs>
  <circle fill="#FFFF00" cx="120" cy="120" r="120"/>
  <g>
    <path d="M54.6,89.5l-0.3,15.5c2.1-2,4.1-3.4,5.8-4.2c1.8-0.8,3.8-1.2,6.2-1.2c4.6,0,8.2,1.3,11,3.9c2.8,2.6,4.1,6,4.1,10.2V127
      c0,3.1,0,4.8,0.1,5.2c0.2,2.6,0.9,4,2.1,4c0.4,0,1-0.1,1.8-0.4c0.3-0.1,0.7-0.1,1.3-0.1c2,0,2.9,0.9,2.9,2.7s-1.3,2.7-3.8,2.7
      c-0.7,0-1.7-0.1-3-0.2c-2.2-0.3-4-0.4-5.4-0.4c-1.4,0-2.4,0.1-3.2,0.2c-2.2,0.3-3.6,0.5-4.1,0.5c-1,0-1.7-0.3-2.4-0.8
      c-0.6-0.6-1-1.3-1-2.1c0-0.7,0.3-1.3,0.8-1.7c0.6-0.5,1.2-0.7,1.9-0.7c0.6,0,1.3,0.1,2.1,0.4c0.5,0.2,0.9,0.2,1.3,0.2
      c1.6,0,2.4-1.7,2.5-5.2c0-0.6,0.1-1.9,0.2-3.7v-3.4v-4.3c0-5.4-0.5-9-1.6-10.9c-1.5-2.8-4.3-4.1-8.1-4.1c-4.2,0-7.3,1.4-9.2,4.3
      c-1.3,2-2,5.1-2.1,9.4v5.7c0,0.3-0.1,0.8-0.3,1.6c0,0.7,0,1.2,0,1.5c0,3,0,4.8,0.1,5.2c0.3,2.6,1.1,3.9,2.4,3.9
      c0.4,0,1-0.1,1.8-0.4c0.8-0.2,1.4-0.4,1.8-0.4c1.7,0,2.6,0.8,2.6,2.5c0,1.9-1.2,2.9-3.5,2.9c-0.7,0-1.9-0.1-3.4-0.2
      c-2-0.2-3.8-0.3-5.2-0.3c-0.9,0-2.2,0.1-3.8,0.2c-2.1,0.2-3.5,0.3-4.1,0.3c-2.2,0-3.3-1-3.3-2.9c0-1.6,1-2.5,3.1-2.5
      c0.7,0,1.2,0.1,1.5,0.2c0.9,0.2,1.6,0.3,1.9,0.3c0.9,0,1.4-0.8,1.7-2.4c0.3-1.6,0.5-4.9,0.5-9.9v-14.2c0-7.9-0.2-13-0.5-15
      c-0.3-2.1-1.1-3.1-2.2-3.1c-0.4,0-0.9,0.1-1.7,0.2c-0.7,0.2-1.3,0.2-1.7,0.2c-1.8,0-2.7-0.8-2.7-2.5c0-0.7,0.3-1.4,1-1.9
      c0.6-0.5,1.4-0.8,2.3-0.8c0.3,0,1.2,0.1,2.7,0.2c1,0.1,2.1,0.2,3.3,0.2c0.5,0,1.1-0.1,2-0.2c0.8-0.1,1.5-0.2,1.8-0.2
      c1.2,0,1.8,0.9,1.8,2.6V89.5z"/>
      <path d="M114.9,129.7v-5.1c0.1-2.2,1-3.3,2.9-3.3c1.9,0,2.8,1.2,2.8,3.7c0,5.8-0.7,9.8-2.2,12.1c-2,3.1-5.3,4.6-9.9,4.6
        c-4.2,0-7.2-1.3-9-4c-1.3-2-2-5.3-2-10v-19.1c0-1.1-0.5-1.7-1.5-1.7h-2.6c-0.9,0-1.6-0.3-2.2-0.8c-0.6-0.6-0.9-1.2-0.9-2
        c0-0.7,0.3-1.4,0.8-2c0.6-0.6,1.2-0.9,1.9-0.9h3.1c0.9,0,1.4-0.5,1.4-1.5v-8.2c0-2,1-3,3.1-3c1.9,0,2.9,1,2.9,3v8.5
        c0,0.8,0.5,1.2,1.4,1.2h8.7c2,0,3,0.9,3,2.8c0,2-1.1,2.9-3.3,2.9h-8.7c-0.7,0-1.1,0.6-1.1,1.7v19.5c0,5.6,1.9,8.3,5.6,8.3
        C112.8,136.5,114.7,134.2,114.9,129.7z"/>
        <path d="M146.6,129.7v-5.1c0.1-2.2,1-3.3,2.9-3.3c1.9,0,2.8,1.2,2.8,3.7c0,5.8-0.7,9.8-2.2,12.1c-2,3.1-5.3,4.6-9.9,4.6
          c-4.2,0-7.2-1.3-9-4c-1.3-2-2-5.3-2-10v-19.1c0-1.1-0.5-1.7-1.5-1.7h-2.6c-0.9,0-1.6-0.3-2.2-0.8c-0.6-0.6-0.9-1.2-0.9-2
          c0-0.7,0.3-1.4,0.8-2c0.6-0.6,1.2-0.9,1.9-0.9h3.1c0.9,0,1.3-0.5,1.3-1.5v-8.2c0-2,1-3,3.1-3c1.9,0,2.9,1,2.9,3v8.5
          c0,0.8,0.5,1.2,1.4,1.2h8.7c2,0,3,0.9,3,2.8c0,2-1.1,2.9-3.3,2.9h-8.7c-0.7,0-1.1,0.6-1.1,1.7v19.5c0,5.6,1.9,8.3,5.6,8.3
          C144.5,136.5,146.5,134.2,146.6,129.7z"/>
          <path d="M168.5,103.3v2.5c3-4.1,7-6.2,12.1-6.2c5.3,0,9.5,1.8,12.6,5.5c3.1,3.7,4.7,8.6,4.7,14.8c0,6.7-1.7,12.1-5,16.1
            c-3.3,4-7.7,6-13.3,6c-4.6,0-8.3-1.6-11.2-4.8v6.6c0,2,0.1,3.3,0.2,3.9c0.3,1.6,1.1,2.5,2.3,2.5c0.4,0,0.9-0.1,1.7-0.2
            c0.7-0.2,1.3-0.2,1.7-0.2c1.7,0,2.5,0.9,2.5,2.6s-1.1,2.6-3.3,2.6c-0.8,0-2-0.1-3.6-0.3c-1.2-0.2-2.9-0.2-5.2-0.2
            c-1.3,0-2.3,0.1-3.2,0.2c-2.1,0.3-3.5,0.4-4.2,0.4c-0.9,0-1.7-0.3-2.3-0.8s-0.9-1.2-0.9-1.9c0-1.7,0.9-2.5,2.7-2.5
            c0.3,0,0.8,0.1,1.5,0.2c0.9,0.2,1.5,0.3,2,0.3c1,0,1.6-0.5,1.8-1.5c0.2-1,0.4-3.9,0.4-8.6v-30.7c-0.1-2.4-0.7-3.7-2-3.7
            c-0.4,0-0.9,0.1-1.7,0.3c-0.8,0.2-1.3,0.3-1.8,0.3c-1.9,0-2.9-0.9-2.9-2.6c0-1.7,1.2-2.5,3.5-2.5c0.6,0,1.2,0,1.9,0.1
            c1.3,0.1,2.3,0.2,2.9,0.2c0.5,0,1.2,0,2.1-0.1c0.9-0.1,1.6-0.1,2-0.1C167.8,101.1,168.5,101.8,168.5,103.3z M169.7,113
            c-0.5,2.1-0.7,4.6-0.8,7.5c0,0.2,0,0.6-0.1,1.2c0,0.5,0,0.8,0,1.1c0,3.5,0.3,6.1,0.9,7.7c0.6,1.6,1.7,3.1,3.5,4.3
            c1.7,1.3,3.9,1.9,6.4,1.9c3.8,0,6.8-1.4,8.9-4.2c2.1-2.8,3.1-6.7,3.1-11.9c0-10.6-3.8-15.9-11.3-15.9c-2.5,0-4.8,0.8-6.8,2.3
            C171.5,108.7,170.2,110.6,169.7,113z"/>
          </g>
          <path d="M21.9,119.9c0,2.1,1,3.3,3.1,3.3h5.3h1H215c2.1,0,3.1-1.2,3.1-3.1c0-2.1-1-3.3-3.1-3.3H31.3h-1H25
            C23,116.8,21.9,118,21.9,119.9z"/>
          </svg>
